<?xml version="1.0" ?>
<!-- Uploaded to: SVG Repo, www.svgrepo.com, Generator: SVG Repo Mixer Tools -->
<svg fill="#000000" width="800px" height="800px" viewBox="0 0 32 32" xmlns="http://www.w3.org/2000/svg">
<title/>
<g id="Chrome">
<path d="M26.49,30.17H5.5a3.36,3.36,0,0,1-2.47-1,3.4,3.4,0,0,1-1-2.5V5.52A3.41,3.41,0,0,1,3,3,3.38,3.38,0,0,1,5.5,2h21A3.39,3.39,0,0,1,29,3a3.41,3.41,0,0,1,1,2.49V26.63a3.4,3.4,0,0,1-1,2.5A3.36,3.36,0,0,1,26.49,30.17Zm-11.88-5,2.66-4.61h-.08a2.72,2.72,0,0,1-1.22.22A4.47,4.47,0,0,1,13.44,20a4.85,4.85,0,0,1-1.71-1.95L8,11.47a9.71,9.71,0,0,0-1.15,4.6,8.9,8.9,0,0,0,2.23,6A9,9,0,0,0,14.61,25.15Zm-3.2-10.23a4.62,4.62,0,0,1,1.7-2.56A4.85,4.85,0,0,1,16,11.47h7.86a9.27,9.27,0,0,0-3.32-3.35A8.77,8.77,0,0,0,16,6.89a8.9,8.9,0,0,0-4,.92,9.06,9.06,0,0,0-3.22,2.63ZM16,19.52a3.31,3.31,0,0,0,2.42-1,3.45,3.45,0,0,0,0-4.88,3.4,3.4,0,0,0-4.84,0,3.45,3.45,0,0,0,0,4.88A3.31,3.31,0,0,0,16,19.52Zm.1,5.73a8.75,8.75,0,0,0,6.39-2.72,8.88,8.88,0,0,0,2.64-6.46,9.08,9.08,0,0,0-.69-3.45h-5.3a4.64,4.64,0,0,1,1.53,3.45,4.78,4.78,0,0,1-.81,2.69Z"/>
</g>
</svg>